<svg width="315" height="249" viewBox="0 0 315 249" fill="none" xmlns="http://www.w3.org/2000/svg">
<path d="M298.4 194.8L314.6 214.8L278.1 248.5C278.1 248.5 273.8 243.8 276.6 239C278 236.5 279.3 232.1 279.6 227.3C279.6 227 279.6 226.6 279.7 226.3C279.8 225.1 279.8 223.9 279.7 222.7C279.7 222.4 279.6 222 279.6 221.7C279.3 219 278.6 216.4 277.4 214.2L298.4 194.8Z" fill="#030047"/>
<path d="M289.1 221.4C286 221.8 282.8 222.3 279.7 222.8C279.7 222.5 279.6 222.1 279.6 221.8C282.7 221.4 285.8 220.9 288.9 220.5C289.5 220.4 289.7 221.3 289.1 221.4Z" fill="white"/>
<path d="M288.2 227C285.4 227.1 282.5 227.2 279.7 227.3C279.7 227 279.7 226.6 279.8 226.3C282.6 226.2 285.5 226.1 288.3 226C288.9 226 288.8 227 288.2 227Z" fill="white"/>
<path d="M228.5 219.8L226.8 245.5H177.1C177.1 245.5 177.1 239.2 182.4 237.5C185.1 236.7 189.1 234.2 192.6 231C192.8 230.8 193.1 230.6 193.3 230.3C194.1 229.5 195 228.6 195.7 227.7C195.9 227.4 196.1 227.2 196.3 226.9C197.9 224.7 199.2 222.3 199.7 219.9H228.5V219.8Z" fill="#030047"/>
<path d="M281.6 159.8C276.5 141.8 268.2 91.5 268.2 91.5L239.5 98.1C238.7 95.2 238.1 93.4 238.1 93.4L209.1 104.5C209.1 127.9 196.1 221.1 196.1 221.1L233.7 226.4C233.7 226.4 238 185.7 240.8 154.6C251.4 190.8 269.3 217.2 276.5 221.7L303.9 199.2C303.9 199.1 286.6 177.8 281.6 159.8Z" fill="white"/>
<path d="M234.4 227.2L195.2 221.7L195.3 221C195.4 220.1 208.3 127.5 208.3 104.5V104L238.5 92.4L238.7 93.2C238.7 93.2 239.2 94.7999 239.9 97.2999L268.7 90.7L268.8 91.4999C268.9 91.9999 277.2 142 282.2 159.8C287.2 177.4 304.3 198.6 304.4 198.8L304.9 199.4L276.5 222.7L276 222.4C269.1 218.2 252 193.5 241.1 158.6C238.3 188.8 234.4 226.2 234.3 226.6L234.4 227.2ZM196.9 220.4L233 225.4C233.6 219.6 237.4 182.8 240 154.4L240.4 150.5L241.5 154.3C252 190 269.2 215.6 276.4 220.6L302.8 198.9C300 195.3 285.3 176.2 280.7 159.9C276 143.3 268.5 98.6999 267.4 92.2999L238.8 98.7999L238.6 98.0999C238.1 96.2999 237.7 95 237.5 94.2L209.8 105C209.6 127.8 198.1 211.6 196.9 220.4Z" fill="#030047"/>
<path d="M260.3 99.1C260 99.1 259.7 98.9 259.6 98.6C259.2 97.7 258.8 96.8 258.4 95.9C258.2 95.5 258.4 95.1 258.8 94.9C259.2 94.7 259.6 94.9 259.8 95.3C260.2 96.2 260.6 97.1 261 98.1C261.2 98.5 261 98.9 260.6 99.1C260.5 99 260.4 99.1 260.3 99.1Z" fill="#030047"/>
<path d="M288.8 196C288.5 196 288.3 195.9 288.1 195.6C287.1 193.9 286.1 192 285.1 190C284.9 189.6 285.1 189.2 285.4 189C285.8 188.8 286.2 189 286.4 189.3C287.4 191.3 288.4 193.1 289.4 194.8C289.6 195.2 289.5 195.6 289.1 195.8C289 195.9 288.9 196 288.8 196ZM283 184.7C282.7 184.7 282.4 184.5 282.3 184.3C281.4 182.4 280.6 180.5 279.7 178.5C279.5 178.1 279.7 177.7 280.1 177.5C280.5 177.3 280.9 177.5 281.1 177.9C281.9 179.9 282.8 181.8 283.6 183.7C283.8 184.1 283.6 184.5 283.2 184.7C283.2 184.6 283.1 184.7 283 184.7ZM278.1 173C277.8 173 277.5 172.8 277.4 172.5C276.7 170.6 276.1 168.6 275.4 166.4C275.3 166 275.5 165.6 275.9 165.5C276.3 165.4 276.7 165.6 276.8 166C277.4 168.1 278.1 170.2 278.7 172C278.8 172.4 278.6 172.8 278.3 173C278.3 172.9 278.2 173 278.1 173ZM274.6 160.8C274.3 160.8 274 160.6 273.9 160.2C273.4 158.3 273 156.2 272.5 154C272.4 153.6 272.7 153.2 273.1 153.1C273.5 153 273.9 153.3 274 153.7C274.5 155.9 274.9 158 275.4 159.9C275.5 160.3 275.2 160.7 274.8 160.8C274.7 160.8 274.6 160.8 274.6 160.8ZM272 148.3C271.6 148.3 271.3 148 271.3 147.7C270.9 145.6 270.5 143.6 270.2 141.5C270.1 141.1 270.4 140.7 270.8 140.6C271.2 140.5 271.6 140.8 271.7 141.2C272.1 143.3 272.4 145.4 272.8 147.4C272.9 147.8 272.6 148.2 272.2 148.3C272.1 148.3 272.1 148.3 272 148.3ZM269.8 135.9C269.4 135.9 269.1 135.6 269.1 135.3C268.7 133.2 268.3 131.1 268 129.1C267.9 128.7 268.2 128.3 268.6 128.2C269 128.1 269.4 128.4 269.5 128.8C269.9 130.9 270.3 133 270.6 135.1C270.7 135.5 270.4 135.9 270 136C269.8 135.8 269.8 135.9 269.8 135.9ZM267.4 123.4C267.1 123.4 266.7 123.2 266.7 122.8C266.2 120.6 265.8 118.6 265.3 116.6C265.2 116.2 265.5 115.8 265.9 115.7C266.3 115.6 266.7 115.9 266.8 116.3C267.3 118.3 267.7 120.3 268.2 122.5C268.3 122.9 268 123.3 267.6 123.4C267.5 123.4 267.4 123.4 267.4 123.4ZM264.4 111.1C264.1 111.1 263.8 110.9 263.7 110.6C263.1 108.5 262.5 106.5 261.8 104.6C261.7 104.2 261.9 103.8 262.3 103.6C262.7 103.5 263.1 103.7 263.3 104.1C263.9 106 264.6 108.1 265.2 110.2C265.3 110.6 265.1 111 264.7 111.1C264.6 111 264.5 111.1 264.4 111.1Z" fill="#030047"/>
<path d="M293.9 203.7C293.7 203.7 293.5 203.6 293.3 203.5C293.3 203.5 292.6 202.7 291.4 201C291.2 200.7 291.2 200.2 291.6 200C291.9 199.8 292.4 199.8 292.6 200.2C293.7 201.8 294.3 202.5 294.4 202.5C294.7 202.8 294.6 203.3 294.3 203.6C294.3 203.6 294.1 203.7 293.9 203.7Z" fill="#030047"/>
<path d="M203.6 233.1C201 231.3 198.4 229.5 195.8 227.7C196 227.4 196.2 227.2 196.4 226.9C199 228.7 201.6 230.5 204.1 232.2C204.6 232.6 204.1 233.4 203.6 233.1Z" fill="white"/>
<path d="M199.1 236.5C197 234.6 194.8 232.8 192.6 230.9C192.8 230.7 193.1 230.5 193.3 230.2C195.4 232.1 197.6 233.9 199.8 235.7C200.3 236.3 199.6 237 199.1 236.5Z" fill="white"/>
<path d="M240.1 147.8C239.8 147.8 239.5 147.6 239.4 147.3C237.3 142.2 234.9 120.6 234.4 116.7C233.4 116.6 230.9 116.2 226.4 115.3C226 115.2 225.7 114.8 225.8 114.4C225.9 114 226.3 113.7 226.7 113.8C232.8 115 235.1 115.3 235.1 115.3L235.7 115.4L235.8 116C235.8 116.3 238.6 141.5 240.7 146.8C240.9 147.2 240.7 147.6 240.3 147.8C240.3 147.8 240.2 147.8 240.1 147.8Z" fill="#030047"/>
<path d="M102.3 81.3C102 81.3 101.7 81.1 101.6 80.8L96.7 68.9C96.5 68.5 96.7 68.1 97.1 67.9C97.5 67.7 97.9 67.9 98.1 68.3L103 80.2C103.2 80.6 103 81 102.6 81.2C102.5 81.3 102.4 81.3 102.3 81.3Z" fill="#030047"/>
<path d="M111.9 79.3C111.5 79.3 111.2 78.9999 111.2 78.5999L109.9 68.7C109.8 68.3 110.1 67.9 110.5 67.9C110.9 67.8 111.3 68.1 111.3 68.5L112.6 78.4C112.7 78.9 112.4 79.2 111.9 79.3Z" fill="#030047"/>
<path d="M123.2 213.6C122.7 213.6 122.4 213.2 122.4 212.8L123.5 195.5C123.5 195.1 123.9 194.8 124.3 194.8C124.7 194.8 125 195.2 125 195.6L123.9 212.9C124 213.3 123.6 213.6 123.2 213.6Z" fill="#030047"/>
<path d="M144.4 204.9C144.1 204.9 143.9 204.8 143.7 204.5L138 194.4C137.8 194 137.9 193.6 138.3 193.4C138.7 193.2 139.1 193.3 139.3 193.7L145 203.8C145.2 204.2 145.1 204.6 144.7 204.8C144.6 204.9 144.5 204.9 144.4 204.9Z" fill="#030047"/>
<path d="M168 180.8H9.40002C2.00002 180.8 -1.69998 171.8 3.60002 166.6L50.8 119.9C52.4 118.4 54.4 117.5 56.6 117.5H215.2C222.6 117.5 226.3 126.5 221 131.7L173.8 178.4C172.3 180 170.2 180.8 168 180.8Z" fill="white"/>
<path d="M168 181.6H9.40001C5.70001 181.6 2.50001 179.5 1.00001 176C-0.399987 172.5 0.300013 168.8 3.00001 166.1L50.2 119.4C51.9 117.7 54.2 116.8 56.6 116.8H215.2C218.9 116.8 222.1 118.9 223.6 122.4C225 125.9 224.3 129.6 221.6 132.3L174.4 179C172.7 180.7 170.4 181.6 168 181.6ZM56.6 118.3C54.6 118.3 52.7 119.1 51.3 120.5L4.10001 167.2C1.90001 169.4 1.20001 172.5 2.40001 175.4C3.60001 178.3 6.30001 180.1 9.40001 180.1H168C170 180.1 171.9 179.3 173.3 177.9L220.5 131.2C222.7 129 223.4 125.9 222.2 123C221 120.1 218.3 118.3 215.2 118.3H56.6Z" fill="#030047"/>
<path d="M155.4 169.5H14.5L64 120.6H204.9L155.4 169.5Z" fill="#030047"/>
<path d="M77.9 148.9H53.7L62.2 140.5H86.4L77.9 148.9Z" fill="white"/>
<path d="M104.3 164.6H82.9L90.4 157.1H111.9L104.3 164.6Z" fill="white"/>
<path d="M67.5 163.5H50.1L57.7 156.1H75L67.5 163.5Z" fill="white"/>
<path d="M137.5 131.5C122.9 131.5 110.2 127.7 105.7 122C105.4 121.7 105.5 121.2 105.8 120.9C106.1 120.6 106.6 120.7 106.9 121C111 126.2 123.6 129.9 137.5 129.9C154.8 129.9 169.4 124.2 169.4 117.5C169.4 117.1 169.7 116.7 170.2 116.7C170.7 116.7 171 117 171 117.5C170.9 125.4 156.2 131.5 137.5 131.5Z" fill="#7C3AED"/>
<path d="M109 111.8C108.8 111.8 108.5 111.7 108.4 111.5C108.2 111.2 108.2 110.7 108.6 110.5C113.5 107.1 121.7 104.7 131.2 104C133.2 103.8 135.3 103.8 137.4 103.8C137.8 103.8 138.2 104.1 138.2 104.6C138.2 105.1 137.9 105.4 137.4 105.4C135.3 105.4 133.3 105.5 131.3 105.6C122 106.3 114.1 108.6 109.4 111.9C109.3 111.8 109.2 111.8 109 111.8Z" fill="#7C3AED"/>
<path d="M164.6 135.3C164.3 135.3 164 135.1 163.9 134.7C163.8 134.3 164 133.9 164.4 133.8C168.4 132.8 172 131.5 175.1 130.1C182.8 126.6 187 122.1 187 117.5C187 106.8 164.8 98.1 137.5 98.1C123.7 98.1 110.8 100.3 101.3 104.3C100.9 104.5 100.5 104.3 100.3 103.9C100.1 103.5 100.3 103.1 100.7 102.9C110.4 98.8 123.4 96.6 137.4 96.6C166 96.6 188.4 105.8 188.4 117.5C188.4 122.7 183.9 127.6 175.6 131.4C172.4 132.9 168.7 134.1 164.7 135.2C164.7 135.3 164.6 135.3 164.6 135.3Z" fill="#7C3AED"/>
<path d="M137.5 138.5C134.6 138.5 131.8 138.4 129 138.2C104.4 136.5 86.5 127.8 86.5 117.5C86.5 117.1 86.8 116.7 87.3 116.7C87.8 116.7 88.1 117 88.1 117.5C88.1 126.8 105.8 135.1 129.2 136.7C132 136.9 134.8 137 137.6 137C138 137 138.4 137.3 138.4 137.8C138.4 138.3 137.9 138.5 137.5 138.5Z" fill="#7C3AED"/>
<path d="M146.3 138.2C145.9 138.2 145.6 137.9 145.6 137.5C145.6 137.1 145.9 136.7 146.3 136.7C150.6 136.4 154.9 135.8 158.8 135.1C159.2 135 159.6 135.3 159.7 135.7C159.8 136.1 159.5 136.5 159.1 136.6C155 137.3 150.8 137.9 146.3 138.2C146.4 138.2 146.3 138.2 146.3 138.2Z" fill="#7C3AED"/>
<path d="M155.3 144.5C154.9 144.5 154.6 144.2 154.6 143.8C154.6 143.4 154.9 143 155.3 143C178.6 140.4 196.6 133.1 202.4 123.7C203.6 121.7 204.2 119.7 204.2 117.6C204.2 113.9 202.8 110.6 200.1 108.4C199.8 108.1 199.7 107.7 200 107.3C200.3 107 200.7 106.9 201.1 107.2C204.1 109.7 205.8 113.4 205.8 117.6C205.8 120 205.1 122.3 203.7 124.5C197.6 134.2 179.1 141.8 155.3 144.5C155.3 144.5 155.3 144.4 155.3 144.5Z" fill="#7C3AED"/>
<path d="M73.7 109.5C73.5 109.5 73.4 109.4 73.2 109.3C72.9 109 72.9 108.6 73.1 108.2C77.7 102.9 86 98.4 97.1 95C97.5 94.9 97.9 95.1 98 95.5C98.1 95.9 97.9 96.3 97.5 96.4C86.6 99.6 78.6 104 74.2 109.1C74.1 109.4 73.9 109.5 73.7 109.5Z" fill="#7C3AED"/>
<path d="M100.1 140.9C100 140.9 100 140.9 99.9 140.9C80.7 135.8 69.3 127.1 69.3 117.6C69.3 117.2 69.6 116.8 70.1 116.8C70.6 116.8 70.9 117.1 70.9 117.6C70.9 126.3 81.9 134.5 100.4 139.4C100.8 139.5 101 139.9 100.9 140.3C100.7 140.7 100.4 140.9 100.1 140.9Z" fill="#7C3AED"/>
<path d="M137.5 124.1C146.447 124.1 153.7 121.19 153.7 117.6C153.7 114.01 146.447 111.1 137.5 111.1C128.553 111.1 121.3 114.01 121.3 117.6C121.3 121.19 128.553 124.1 137.5 124.1Z" fill="#7C3AED"/>
<path d="M218.6 31.3C199.5 37.4 190.6 61.9001 186.1 68.5001C174.9 84.7001 146.8 86.8001 139.8 93.0001C133.2 98.8001 137.5 102.2 137.5 102.2C137.5 102.2 136.7 105.6 139.2 107.2C139.2 107.2 133.8 112.9 136.4 115.4C138.9 117.9 146.9 107.3 150.4 106.7L151.4 109.1C151.1 110.6 147.1 113.9 149 115.8C150.8 117.8 157.5 111.1 159.3 108.9C161.1 106.7 164.5 107.2 168 103.9C171.5 100.6 187.5 101.6 198.3 90.4001C209 79.2001 225.2 45.6 225.2 45.6L218.6 31.3Z" fill="white"/>
<path d="M149.7 116.8C149 116.8 148.5 116.5 148.2 116.2C146.5 114.4 148.2 112.1 149.4 110.4C149.8 109.9 150.2 109.3 150.4 108.9L149.8 107.4C148.5 108 146.5 109.8 144.7 111.4C141.1 114.6 137.7 117.7 135.7 115.7C133.2 113.2 136.5 108.8 138 107.1C136.4 105.5 136.5 103.2 136.6 102.3C136.1 101.8 135.4 100.7 135.3 99.1C135.3 96.9 136.6 94.6001 139.2 92.3C141.8 90 147.2 88.3001 153.4 86.2001C164.5 82.6001 178.4 78.1001 185.4 67.9001C186.3 66.6001 187.4 64.4001 188.8 62.0001C194.1 52.1001 202.9 35.4001 218.3 30.5001L218.9 30.3L225.7 45.4001L225.6 45.7001C224.9 47.1001 209.3 79.6001 198.6 90.7001C191.5 98.1001 182.2 100.2 175.5 101.8C172.2 102.6 169.4 103.2 168.3 104.2C166.3 106.1 164.3 106.8 162.7 107.4C161.4 107.9 160.4 108.3 159.7 109.1C159.7 109.4 153.2 116.7 149.7 116.8C149.8 116.8 149.7 116.8 149.7 116.8ZM150.8 105.7L152.1 108.8V109C152 109.6 151.4 110.4 150.8 111.2C149.6 112.9 148.7 114.3 149.4 115.1C149.4 115.1 149.5 115.2 149.8 115.2C151.8 115.2 156.5 110.7 158.6 108.2C159.6 107.1 160.9 106.6 162.3 106C163.8 105.4 165.6 104.8 167.3 103.1C168.7 101.8 171.4 101.2 175.2 100.3C181.8 98.8 190.8 96.7 197.6 89.6C207.6 79.2 222.5 48.7 224.2 45.3L218.3 32.1C203.8 37.1 195.4 53.1001 190.3 62.7001C188.9 65.3001 187.8 67.4 186.9 68.8C179.6 79.4 165.4 84.0001 154.1 87.7001C148.1 89.7001 142.9 91.4001 140.5 93.5001C138.2 95.5001 137 97.4 137.1 99.1C137.1 100.6 138.2 101.5 138.2 101.5L138.6 101.8L138.5 102.3C138.5 102.3 137.9 105.2 139.8 106.5L140.6 107L140 107.7C138.7 109 135.5 113.2 137.1 114.8C138.1 115.8 141.7 112.5 144 110.4C146.4 108.2 148.7 106.2 150.4 105.9L150.8 105.7Z" fill="#030047"/>
<path d="M203.3 76.2C204.5 77 205.7 77.7999 206.8 78.4999C215.9 64.2999 224.9 45.4 224.9 45.4L218.6 31.2C201.6 36.6 192.7 56.5999 187.8 65.5999C193.1 68.8999 198.2 72.7999 203.3 76.2Z" fill="#7C3AED"/>
<path d="M207.1 79.6L206.5 79.2C205.3 78.4 204.2 77.6 203 76.9C200.8 75.5 198.7 74 196.6 72.5C193.7 70.4 190.6 68.3 187.5 66.4L186.9 66L187.2 65.4C187.7 64.4 188.3 63.4 188.9 62.2C194.2 52.3 203 35.6 218.4 30.7L219 30.5L225.8 45.6L225.7 45.9C225.6 46.1 216.5 65 207.5 79L207.1 79.6ZM188.8 65.4C191.7 67.2 194.6 69.2 197.3 71.2C199.4 72.7 201.6 74.2 203.7 75.6C204.7 76.2 205.6 76.9 206.6 77.5C214.8 64.6 222.9 48 224.1 45.5L218.2 32.3C203.7 37.3 195.3 53.3 190.2 62.9C189.7 63.8 189.3 64.6 188.8 65.4Z" fill="#7C3AED"/>
<path d="M144.8 101.9C142.6 102.9 140.8 104.4 139.2 106.2C138.8 106.7 139.5 107.4 139.9 106.9C141.4 105.1 143.2 103.7 145.3 102.7C145.9 102.5 145.4 101.6 144.8 101.9Z" fill="#030047"/>
<path d="M142.6 97.4002C140.5 98.0002 138.8 99.3001 137.6 101.1C137.3 101.6 138.1 102.1 138.5 101.6C139.5 100 141.1 98.8001 142.9 98.3001C143.4 98.2001 143.2 97.2002 142.6 97.4002Z" fill="#030047"/>
<path d="M218.6 31.3C208.5 34.7 201.1 40.1 203.3 69.1C205.5 98.1 205.1 107 205.1 107L270.1 97.8C270.1 97.8 251.2 20.4 218.6 31.3Z" fill="#7C3AED"/>
<path d="M204.4 107.9V107C204.4 106.9 204.7 97.8 202.6 69.2C200.4 39.2 208.4 34 218.4 30.6L218.6 31.3L218.4 30.6C224 28.7 229.6 29.3 235 32.2C257.7 44.7 270.4 95.4 270.9 97.6L271.1 98.4L204.4 107.9ZM224.9 31C222.9 31 220.9 31.3 218.9 32C209.2 35.3 201.9 40.1 204.1 69.1C205.9 92.9 206 103.3 205.9 106.2L269.2 97.2C267.5 90.6 254.9 44.9 234.3 33.6C231.2 31.9 228.1 31 224.9 31Z" fill="#7C3AED"/>
<path d="M203.6 74.4001C203.2 74.4001 202.9 74.1001 202.9 73.7001L202.3 56.6C202.3 56.2 202.6 55.8 203 55.8C203.4 55.8 203.8 56.1001 203.8 56.5001L204.4 73.6C204.4 74.1 204.1 74.4001 203.6 74.4001C203.7 74.4001 203.6 74.4001 203.6 74.4001Z" fill="#030047"/>
<path d="M278.8 72C268.5 46 243 23.6 218.6 31.3C218.6 31.3 243.1 57.4001 253.9 71.7001C261.6 81.9001 267.9 102.7 271.3 114.9C264.7 122.1 267.2 135.9 268.6 136.3C272.6 137.6 273.1 128.8 273.1 128.8L274.6 128C275.2 131.6 275.8 136.1 277.4 137.4C279.8 139.3 282.2 136.5 282.2 136.5C285.1 137.8 288 135.7 288 135.7C301.6 134.8 289.1 98 278.8 72Z" fill="white"/>
<path d="M279.2 138.9C278.5 138.9 277.7 138.7 277 138.1C275.3 136.7 274.6 132.8 274.1 129.3L273.9 129.4C273.8 130.9 273.2 135.3 271 136.8C270.2 137.3 269.3 137.4 268.4 137.1C268 137 267.4 136.5 266.9 134.4C266 131 265 121 270.5 114.7C264.7 93.9 259 79.6 253.4 72.2C242.8 58.1 218.4 32.1 218.2 31.9L217.4 31L218.5 30.6C243.4 22.7 269.1 45.3 279.6 71.7C293.1 105.6 297.6 126.4 293.1 133.6C292 135.3 290.4 136.3 288.3 136.5C287.6 136.9 285.1 138.3 282.5 137.4C281.6 138.2 280.5 138.9 279.2 138.9ZM275.2 126.9L275.4 128.5C275.9 131.6 276.5 135.9 277.9 137C279.7 138.4 281.6 136.3 281.6 136.2L282 135.8L282.5 136C284.9 137.1 287.5 135.3 287.5 135.3L287.7 135.2H287.9C289.6 135.1 290.9 134.3 291.7 132.9C294.6 128.2 294.6 113.9 278.1 72.4C268 47 243.7 25.2 220 31.8C224.4 36.5 245 58.7 254.5 71.3C260.2 78.9 266.1 93.5 272 114.7L272.1 115.1L271.8 115.4C265.7 122 267.7 134.3 268.9 135.7C269.4 135.8 269.7 135.8 270.1 135.5C271.7 134.4 272.3 130.2 272.3 128.8V128.4L275.2 126.9Z" fill="#030047"/>
<path d="M257.5 61.2999C261.1 58.5999 264.4 55.6999 267.8 52.7999C255.2 36.2999 236.6 25.5999 218.6 31.2999C218.6 31.2999 238.1 51.9999 249.9 66.5999C252.5 64.8999 255 63.0999 257.5 61.2999Z" fill="#7C3AED"/>
<path d="M249.8 67.7L249.4 67.2C237.7 52.8 218.3 32.1 218.1 31.9L217.3 31L218.4 30.6C234.9 25.3 254.1 33.7 268.4 52.3L268.8 52.9L268.3 53.4C267.6 54 266.9 54.6 266.1 55.2C263.5 57.5 260.7 59.8 257.9 61.9C255.7 63.6 253.3 65.3 250.3 67.3L249.8 67.7ZM220 31.7C223.8 35.8 239.7 53 250.1 65.7C252.8 63.8 255 62.3 257.1 60.7C259.9 58.6 262.6 56.3 265.2 54.1C265.7 53.6 266.3 53.2 266.8 52.7C256.1 39 238.4 26.6 220 31.7Z" fill="#7C3AED"/>
<path d="M281.5 125.2C281.3 124.6 280.3 124.8 280.5 125.5C281.5 128.8 281.8 132.1 281.3 135.5C281.2 136.1 282.2 136.1 282.3 135.5C282.9 132 282.6 128.6 281.5 125.2Z" fill="#030047"/>
<path d="M287.6 123.7C287.4 123.1 286.5 123.3 286.6 124C287.5 127.4 287.7 130.9 287.4 134.4C287.3 135 288.3 135 288.4 134.4C288.8 130.7 288.5 127.2 287.6 123.7Z" fill="#030047"/>
<path d="M247.1 64.0001C246.9 64.0001 246.6 63.9001 246.5 63.7001C241.2 56.7001 238.9 53.3001 238.8 53.3001C238.6 53.0001 238.6 52.5001 239 52.3001C239.3 52.1001 239.8 52.1001 240 52.5001C240 52.5001 242.4 55.9001 247.6 62.9001C247.9 63.2001 247.8 63.7001 247.5 64.0001C247.4 63.9001 247.3 64.0001 247.1 64.0001Z" fill="#030047"/>
<path d="M222.4 14.5C222.3 11 218.8 8.9 214.9 10.8C214.3 11.1 213.8 11.5 213.2 12C213.2 12 213.2 12 213.1 11.9C207.6 6.10004 198.9 5.30003 193.7 10.2C188.5 15.1 189.7 23 194.1 29.7C198.2 35.7 206.7 38.9 213.5 31.4C215.7 28.9 217 25.6 217.1 22.2C220.8 21.1 222.5 17.6 222.4 14.5Z" fill="white"/>
<path d="M204.7 36.6C204.4 36.6 204.2 36.6 203.9 36.6C199.9 36.3 196.1 33.9001 193.6 30.2001C188.4 22.5001 188.3 14.5001 193.3 9.80006C198.7 4.70006 207.6 5.30004 213.3 11.1C213.7 10.8 214.2 10.5001 214.6 10.3001C216.7 9.20006 218.9 9.20008 220.6 10.2001C222.1 11.1001 223.1 12.7 223.1 14.6C223.2 17.6 221.6 21.4001 217.8 22.9001C217.6 26.3001 216.3 29.5001 214.1 32.0001C210.8 35.7001 207.3 36.6 204.7 36.6ZM202.2 7.80006C199.3 7.80006 196.5 8.80006 194.3 10.8001C188.9 15.9001 191.2 23.9001 194.8 29.3001C197.1 32.7001 200.5 34.8001 204 35.0001C207.3 35.2001 210.4 33.8001 213 30.9001C215.1 28.6001 216.3 25.5001 216.4 22.2001V21.7001L216.9 21.5001C220.2 20.4001 221.7 17.1001 221.6 14.5001C221.6 13.2001 220.9 12.0001 219.8 11.4001C218.5 10.6001 216.8 10.7001 215.2 11.5001C214.7 11.8001 214.2 12.1 213.6 12.6L213.1 13.1L212.6 12.6C209.8 9.40004 205.9 7.80006 202.2 7.80006Z" fill="#030047"/>
<path d="M202.712 23.0956C202.938 22.5915 202.712 21.9999 202.208 21.7742C201.704 21.5485 201.112 21.7741 200.887 22.2782C200.661 22.7823 200.887 23.3739 201.391 23.5996C201.895 23.8253 202.486 23.5997 202.712 23.0956Z" fill="#030047"/>
<path d="M199.4 30.7999C198.1 28.9999 197.1 26.9999 196.3 24.8999C196.1 24.2999 197 23.8999 197.2 24.4999C197.9 26.4999 198.9 28.3999 200.1 30.1999C200.6 30.6999 199.8 31.2999 199.4 30.7999Z" fill="#030047"/>
<path d="M192.4 18.6C195.4 17.5 204.6 9.5 208.1 15.3C209 16.8 209 18 210.7 17.6C212.3 16.9 212 14.9 212 14.9C213.2 13.2 213.6 11.5 214.9 10.8C218.5 5 209.6 -2.20001 204.6 2.09999C204.6 2.09999 193.5 -0.599997 190.3 6.3C184.6 8.6 182.5 13 183.7 17.1C185.9 24.1 192.4 18.6 192.4 18.6Z" fill="#030047"/>
<path d="M214.2 18.0001C214.1 15.6001 215.6 13.5001 217.9 12.8001C218.5 12.6001 218.9 13.6001 218.3 13.7001C216.5 14.2001 215.2 15.9001 215.3 17.8001C215.3 18.6001 214.3 18.7001 214.2 18.0001Z" fill="#030047"/>
<path d="M138.6 164.2C138.4 164.2 138.2 164.1 138.1 164L125.5 151.4C125.2 151.1 125.2 150.6 125.5 150.3C125.8 150 126.3 150 126.6 150.3L139.2 162.9C139.5 163.2 139.5 163.7 139.2 164C139 164.1 138.8 164.2 138.6 164.2Z" fill="#7C3AED"/>
<path d="M126.1 164.2C125.9 164.2 125.7 164.1 125.6 164C125.3 163.7 125.3 163.2 125.6 162.9L138.2 150.3C138.5 150 139 150 139.3 150.3C139.6 150.6 139.6 151.1 139.3 151.4L126.7 164C126.4 164.1 126.3 164.2 126.1 164.2Z" fill="#7C3AED"/>
</svg>
