<svg width="564" height="646" viewBox="0 0 564 646" fill="none" xmlns="http://www.w3.org/2000/svg">
<path d="M70.7946 47.43L70.7947 47.4299C96.7406 21.4841 138.807 21.4841 164.753 47.4299L263.135 145.812L169.177 239.77L70.7946 141.388C58.335 128.929 51.3352 112.03 51.3352 94.4092C51.3352 76.7886 58.335 59.8897 70.7946 47.43Z" fill="#7C3AED"/>
<path d="M169.351 239.77L75.3928 145.812L173.775 47.4298C186.235 34.9701 203.133 27.9704 220.754 27.9704C238.375 27.9704 255.274 34.9701 267.733 47.4298L267.733 47.4299C280.193 59.8895 287.193 76.7884 287.193 94.409C287.193 112.03 280.193 128.929 267.733 141.388L169.351 239.77L169.351 239.77Z" fill="#7C3AED"/>
<path d="M263.135 145.812L169.177 239.77" stroke="black" stroke-width="1.5"/>
<path d="M169.351 239.77L267.733 141.388C280.193 128.929 287.193 112.03 287.193 94.4091C287.193 76.7885 280.193 59.8896 267.733 47.4299" stroke="black" stroke-width="1.5"/>
<rect x="51.7905" y="447.282" width="83.2352" height="17.9215" fill="black"/>
<rect x="51.7905" y="566.161" width="83.2352" height="17.9215" fill="black"/>
<path d="M110.527 645.149V406.564L93.4079 396.681L76.2889 406.564V645.149" fill="#EDEEEF"/>
<path d="M110.527 645.149V406.564L93.4079 396.681L76.2889 406.564" stroke="black" stroke-width="1.5"/>
<path d="M93.4081 457.886C94.3154 457.886 95.0509 457.15 95.0509 456.243C95.0509 455.336 94.3154 454.6 93.4081 454.6C92.5008 454.6 91.7653 455.336 91.7653 456.243C91.7653 457.15 92.5008 457.886 93.4081 457.886Z" fill="black"/>
<path d="M93.4081 576.765C94.3154 576.765 95.0509 576.03 95.0509 575.122C95.0509 574.215 94.3154 573.479 93.4081 573.479C92.5008 573.479 91.7653 574.215 91.7653 575.122C91.7653 576.03 92.5008 576.765 93.4081 576.765Z" fill="black"/>
<rect x="110.527" y="447.282" width="83.2352" height="17.9215" fill="black"/>
<rect x="110.527" y="566.161" width="83.2352" height="17.9215" fill="black"/>
<path d="M169.264 645.149V406.564L152.145 396.681L135.026 406.564V645.149" fill="#EDEEEF"/>
<path d="M169.264 645.149V406.564L152.145 396.681L135.026 406.564" stroke="black" stroke-width="1.5"/>
<path d="M152.145 457.886C153.052 457.886 153.788 457.15 153.788 456.243C153.788 455.336 153.052 454.6 152.145 454.6C151.238 454.6 150.502 455.336 150.502 456.243C150.502 457.15 151.238 457.886 152.145 457.886Z" fill="black"/>
<path d="M152.145 576.765C153.052 576.765 153.788 576.03 153.788 575.122C153.788 574.215 153.052 573.479 152.145 573.479C151.238 573.479 150.502 574.215 150.502 575.122C150.502 576.03 151.238 576.765 152.145 576.765Z" fill="black"/>
<rect x="169.264" y="447.282" width="83.2352" height="17.9215" fill="black"/>
<rect x="169.264" y="566.161" width="83.2352" height="17.9215" fill="black"/>
<path d="M228.001 645.149V406.564L210.882 396.681L193.762 406.564V645.149" fill="#EDEEEF"/>
<path d="M228.001 645.149V406.564L210.882 396.681L193.762 406.564" stroke="black" stroke-width="1.5"/>
<path d="M210.882 457.886C211.789 457.886 212.524 457.15 212.524 456.243C212.524 455.336 211.789 454.6 210.882 454.6C209.974 454.6 209.239 455.336 209.239 456.243C209.239 457.15 209.974 457.886 210.882 457.886Z" fill="black"/>
<path d="M210.882 576.765C211.789 576.765 212.524 576.03 212.524 575.122C212.524 574.215 211.789 573.479 210.882 573.479C209.974 573.479 209.239 574.215 209.239 575.122C209.239 576.03 209.974 576.765 210.882 576.765Z" fill="black"/>
<rect x="228.001" y="447.282" width="83.2352" height="17.9215" fill="black"/>
<rect x="228.001" y="566.161" width="83.2352" height="17.9215" fill="black"/>
<path d="M286.738 645.149V406.564L269.619 396.681L252.5 406.564V645.149" fill="#EDEEEF"/>
<path d="M286.738 645.149V406.564L269.619 396.681L252.5 406.564" stroke="black" stroke-width="1.5"/>
<path d="M269.618 457.886C270.526 457.886 271.261 457.15 271.261 456.243C271.261 455.336 270.526 454.6 269.618 454.6C268.711 454.6 267.976 455.336 267.976 456.243C267.976 457.15 268.711 457.886 269.618 457.886Z" fill="black"/>
<path d="M269.618 576.765C270.526 576.765 271.261 576.03 271.261 575.122C271.261 574.215 270.526 573.479 269.618 573.479C268.711 573.479 267.976 574.215 267.976 575.122C267.976 576.03 268.711 576.765 269.618 576.765Z" fill="black"/>
<rect x="286.737" y="447.282" width="83.2352" height="17.9215" fill="black"/>
<rect x="286.737" y="566.161" width="83.2352" height="17.9215" fill="black"/>
<path d="M345.474 645.149V406.564L328.355 396.681L311.236 406.564V645.149" fill="#EDEEEF"/>
<path d="M345.474 645.149V406.564L328.355 396.681L311.236 406.564" stroke="black" stroke-width="1.5"/>
<path d="M328.355 457.886C329.262 457.886 329.998 457.15 329.998 456.243C329.998 455.336 329.262 454.6 328.355 454.6C327.448 454.6 326.712 455.336 326.712 456.243C326.712 457.15 327.448 457.886 328.355 457.886Z" fill="black"/>
<path d="M328.355 576.765C329.262 576.765 329.998 576.03 329.998 575.122C329.998 574.215 329.262 573.479 328.355 573.479C327.448 573.479 326.712 574.215 326.712 575.122C326.712 576.03 327.448 576.765 328.355 576.765Z" fill="black"/>
<rect x="345.474" y="447.282" width="83.2352" height="17.9215" fill="black"/>
<rect x="345.474" y="566.161" width="83.2352" height="17.9215" fill="black"/>
<path d="M404.211 645.149V406.564L387.092 396.681L369.973 406.564V645.149" fill="#EDEEEF"/>
<path d="M404.211 645.149V406.564L387.092 396.681L369.973 406.564" stroke="black" stroke-width="1.5"/>
<path d="M387.092 457.886C387.999 457.886 388.735 457.15 388.735 456.243C388.735 455.336 387.999 454.6 387.092 454.6C386.184 454.6 385.449 455.336 385.449 456.243C385.449 457.15 386.184 457.886 387.092 457.886Z" fill="black"/>
<path d="M387.092 576.765C387.999 576.765 388.735 576.03 388.735 575.122C388.735 574.215 387.999 573.479 387.092 573.479C386.184 573.479 385.449 574.215 385.449 575.122C385.449 576.03 386.184 576.765 387.092 576.765Z" fill="black"/>
<rect x="404.211" y="447.282" width="83.2352" height="17.9215" fill="black"/>
<rect x="404.211" y="566.161" width="83.2352" height="17.9215" fill="black"/>
<path d="M462.947 645.149V406.564L445.828 396.681L428.709 406.564V645.149" fill="#EDEEEF"/>
<path d="M462.947 645.149V406.564L445.828 396.681L428.709 406.564" stroke="black" stroke-width="1.5"/>
<path d="M445.829 457.886C446.736 457.886 447.471 457.15 447.471 456.243C447.471 455.336 446.736 454.6 445.829 454.6C444.921 454.6 444.186 455.336 444.186 456.243C444.186 457.15 444.921 457.886 445.829 457.886Z" fill="black"/>
<path d="M445.829 576.765C446.736 576.765 447.471 576.03 447.471 575.122C447.471 574.215 446.736 573.479 445.829 573.479C444.921 573.479 444.186 574.215 444.186 575.122C444.186 576.03 444.921 576.765 445.829 576.765Z" fill="black"/>
<path d="M44.2673 645.15H494.969" stroke="black" stroke-width="1.5"/>
<path d="M296.817 449.624L236.777 530.922L217.918 534.956L279.337 580.344L399.801 466.344" fill="#F4F4F4"/>
<path d="M435.761 466.932C435.761 466.932 431.591 577.422 431.966 630.622L419.586 643.25H497.394L512.63 480.612" fill="#E2E2E2"/>
<path d="M496.875 67.237V81.2833C496.875 92.1444 489.46 101.602 478.913 104.195L456.561 109.689V54.7703L475.146 50.2022C480.38 48.9159 485.915 50.1068 490.156 53.4319C494.398 56.7571 496.875 61.8475 496.875 67.237L496.875 67.237Z" fill="#EDEEEF"/>
<path d="M496.875 81.2834C496.875 92.1446 489.46 101.602 478.913 104.195L456.561 109.689" stroke="black" stroke-width="1.5"/>
<path d="M474.102 78.4964C474.697 78.4964 475.18 78.0138 475.18 77.4185C475.18 76.8232 474.697 76.3406 474.102 76.3406C473.506 76.3406 473.024 76.8232 473.024 77.4185C473.024 78.0138 473.506 78.4964 474.102 78.4964Z" fill="black"/>
<path d="M490.658 78.4964C491.253 78.4964 491.736 78.0138 491.736 77.4185C491.736 76.8232 491.253 76.3406 490.658 76.3406C490.062 76.3406 489.58 76.8232 489.58 77.4185C489.58 78.0138 490.062 78.4964 490.658 78.4964Z" fill="black"/>
<path d="M485.801 83.8488V67.2371H494.123" stroke="black" stroke-width="1.5"/>
<path d="M472.071 67.2372H480.393" stroke="black" stroke-width="1.5"/>
<path d="M495.418 64.517H495.418" stroke="black" stroke-width="1.5"/>
<path d="M459.216 75.7483V81.517C456.104 81.517 453.582 78.9944 453.582 75.8827C453.582 75.7098 453.589 75.5388 453.605 75.3699C453.92 71.8711 459.216 72.2354 459.216 75.7483Z" fill="#EDEEEF"/>
<path d="M459.216 81.5171C456.104 81.5171 453.582 78.9945 453.582 75.8828" stroke="black" stroke-width="1.5"/>
<path d="M481.251 85.7896C479.794 87.2465 477.431 87.2465 475.974 85.7896" stroke="#7C3AED" stroke-width="1.5" stroke-linecap="round" stroke-linejoin="round"/>
<path d="M485.801 83.8619L482.161 84.7565" stroke="black" stroke-width="1.5" stroke-linecap="round"/>
<path d="M459.216 72.9224C459.216 72.9224 484.586 75.1514 491.736 59.3181C491.736 59.3181 492.837 68.0581 496.875 69.4514" stroke="black" stroke-width="1.5"/>
<path d="M496.875 77.4183C496.875 77.4183 508.386 62.8647 497.999 48.1714C487.612 33.4781 465.572 40.3181 465.572 40.3181C465.572 40.3181 440.492 50.6956 404.266 49.6868C389.697 49.2812 382.339 53.6547 378.749 59.0291C372.286 68.5107 362.763 75.4848 351.774 78.7842C344.405 81.0796 339.075 85.8558 342.452 95.4859C350.559 118.598 441.252 107.198 457.972 97.8247" stroke="black" stroke-width="1.5"/>
<path d="M534.008 167.964V255.997L409.297 286.649V188.604C409.297 153.839 433.031 123.566 466.791 115.268H466.791C482.982 111.289 500.103 114.973 513.223 125.259C526.344 135.545 534.008 151.292 534.008 167.964L534.008 167.964Z" fill="#EDEEEF"/>
<path d="M534.008 255.997L409.297 286.649L286.973 449.624L512.63 521.629C512.63 521.629 542.403 326.263 534.008 255.997Z" fill="#7C3AED"/>
<path d="M286.973 449.624L512.63 521.629" stroke="black" stroke-width="1.5"/>
<path d="M534.008 255.997L409.297 286.649" stroke="black" stroke-width="1.5"/>
<path d="M438.936 128.618L383.561 177.986C383.561 177.986 293.559 110.745 252.013 116.825V123.875L265.693 133.545C265.693 133.545 263.159 153.305 283.426 156.345C283.426 156.345 337.351 266.798 409.297 232.345" stroke="black" stroke-width="1.5"/>
<path d="M511.241 123.781C511.241 123.781 592.999 192.318 551.453 253.625C509.906 314.932 418.199 228.292 418.199 228.292C418.199 228.292 400.973 222.212 403.506 208.532L392.359 196.878L398.439 188.265L505.853 216.638L485.801 192.318" stroke="black" stroke-width="1.5"/>
<path d="M425.549 234.73C424.269 251.777 439.229 271.544 462.903 282.091C489.512 293.946 517.422 289.829 526.871 273.126C490.931 285.099 443.537 249.779 425.549 234.73Z" fill="black"/>
<path d="M279.337 580.344L399.801 466.344" stroke="black" stroke-width="1.5"/>
<path d="M48.0661 280.901C26.0349 280.862 8.14321 298.69 8.104 320.721L87.8864 320.863C87.9256 298.832 70.0975 280.94 48.0661 280.901Z" fill="#EDEEEF"/>
<path d="M131.168 298.197C118.607 298.175 108.406 308.339 108.384 320.9L153.87 320.981C153.893 308.42 143.728 298.22 131.168 298.197Z" fill="#EDEEEF"/>
<path d="M87.9606 279.149C64.9222 279.108 46.2126 297.751 46.1716 320.789L129.601 320.938C129.642 297.899 110.999 279.189 87.9606 279.149Z" fill="#EDEEEF"/>
<path d="M0.773926 320.708L164.753 321" stroke="black" stroke-width="1.5"/>
<path d="M301.57 251.061C317.697 251.032 330.794 264.083 330.823 280.209L272.422 280.313C272.393 264.186 285.444 251.09 301.57 251.061Z" fill="#EDEEEF"/>
<path d="M240.74 263.722C249.935 263.705 257.402 271.146 257.418 280.34L224.122 280.399C224.106 271.205 231.546 263.738 240.74 263.722Z" fill="#EDEEEF"/>
<path d="M272.368 249.778C289.232 249.748 302.927 263.395 302.957 280.259L241.887 280.368C241.857 263.503 255.504 249.808 272.368 249.778Z" fill="#EDEEEF"/>
<path d="M336.188 280.2L216.156 280.413" stroke="black" stroke-width="1.5"/>
</svg>
